<svg width="155" height="32" viewBox="0 0 155 32" fill="none" xmlns="http://www.w3.org/2000/svg">
<path d="M34.8303 31.4907H40.4685V0.721806H34.8303V31.4907Z" fill="#FF4B00"/>
<path d="M108.571 21.2595C108.029 20.8039 107.406 20.4202 106.718 20.1195C106.064 19.8326 105.397 19.5606 104.714 19.3014C103.813 18.9601 103.025 18.6696 102.348 18.4289C101.697 18.1964 101.146 17.9742 100.713 17.7694C100.335 17.5914 100.055 17.3959 99.882 17.1865C99.7384 17.0149 99.6689 16.7862 99.6689 16.4883C99.6689 15.957 99.8554 15.5853 100.256 15.316C100.713 15.0089 101.286 14.8539 101.963 14.8539C102.924 14.8539 103.608 15.0725 103.992 15.5051C104.396 15.9598 104.593 16.5731 104.593 17.3783V17.9096H110.107V17.3783C110.107 16.3416 109.892 15.3649 109.465 14.4748C109.043 13.594 108.462 12.8239 107.738 12.1847C107.02 11.5501 106.165 11.0456 105.197 10.6859C103.302 9.98034 101.004 10.0071 99.1127 10.5236C98.1696 10.7791 97.3263 11.1775 96.6018 11.7097C95.8701 12.2483 95.2819 12.9133 94.8548 13.6826C94.4185 14.4647 94.1971 15.3806 94.1971 16.4034C94.1971 17.3156 94.3224 18.107 94.5685 18.7563C94.8209 19.4231 95.1914 19.9904 95.6698 20.4405C96.1235 20.8684 96.665 21.2457 97.2824 21.5648C97.8733 21.8701 98.5218 22.1569 99.2087 22.4161C100.254 22.8164 101.159 23.1429 101.923 23.3993C102.653 23.6446 103.271 23.8872 103.759 24.1196C104.198 24.3281 104.524 24.5494 104.729 24.7782C104.893 24.9636 104.973 25.208 104.973 25.528C104.973 26.3867 104.6 26.6911 104.32 26.8451C103.785 27.1403 103.104 27.2906 102.3 27.2906C101.323 27.2906 100.514 27.06 99.8939 26.6062C99.3176 26.1838 99.0368 25.4284 99.0368 24.2967V23.7664H93.5239V24.2967C93.5239 25.5345 93.7626 26.6487 94.23 27.6079C94.6984 28.5652 95.3405 29.3824 96.139 30.0345C96.9293 30.6829 97.844 31.1791 98.8548 31.5066C99.8554 31.834 100.928 32 102.048 32C103.146 32 104.209 31.8736 105.206 31.6237C106.214 31.3691 107.115 30.9716 107.879 30.4422C108.66 29.9017 109.282 29.2035 109.729 28.3679C110.175 27.5295 110.401 26.5444 110.401 25.4432C110.401 24.459 110.235 23.6216 109.904 22.9566C109.579 22.3008 109.13 21.729 108.571 21.2595Z" fill="#FF4B00"/>
<path d="M24.6373 31.5149H30.2858V10.6641H24.6373V31.5149Z" fill="#FF4B00"/>
<path d="M151.15 10.9197C152.196 11.4381 153.033 12.1538 153.644 13.0466C154.163 13.8454 154.522 14.7354 154.716 15.7039C154.905 16.64 155 17.8178 155 19.2041V31.4904H149.361V20.7324C149.361 19.9244 149.293 19.158 149.16 18.4542C149.032 17.7883 148.823 17.2128 148.536 16.747C148.258 16.2969 147.892 15.9455 147.419 15.6762C146.955 15.4115 146.355 15.2777 145.635 15.2777C144.208 15.2777 143.187 15.7647 142.513 16.7655C141.806 17.816 141.448 19.1497 141.448 20.7324V31.4904H135.809V10.6523H141.448V12.7275C141.448 12.7275 142.882 10.1431 147.32 10.1431C149.788 10.1431 151.15 10.9197 151.15 10.9197Z" fill="#FF4B00"/>
<path fill-rule="evenodd" clip-rule="evenodd" d="M18.6297 17.1653C19.2307 17.7565 19.7466 18.5054 20.1655 19.3918C20.5899 20.2938 20.804 21.36 20.804 22.5627C20.804 23.3679 20.6714 24.2902 20.4088 25.3029C20.139 26.347 19.624 27.3413 18.8785 28.2572C18.1303 29.1786 17.0775 29.9552 15.7493 30.5648C14.4258 31.1726 12.6979 31.4807 10.6124 31.4807H0V0.739511H10.5712C12.6522 0.739511 14.3654 1.03373 15.6597 1.61203C16.9586 2.19218 17.9894 2.92266 18.724 3.78412C19.4603 4.64834 19.9579 5.59834 20.2003 6.60828C20.4335 7.57857 20.5524 8.476 20.5524 9.27658C20.5524 10.2727 20.3832 11.1895 20.0494 11.9984C19.7201 12.798 19.2856 13.5045 18.7587 14.0967C18.2328 14.6879 17.63 15.1795 16.9686 15.5586C16.8451 15.6296 16.7217 15.6969 16.5973 15.7596C16.6169 15.7684 16.6368 15.7774 16.6567 15.7864C16.6766 15.7954 16.6965 15.8044 16.7162 15.8131C17.3867 16.1203 18.0297 16.575 18.6297 17.1653ZM14.5383 10.8316C14.445 11.2208 14.2529 11.5944 13.9666 11.9412C13.6812 12.2908 13.2659 12.5942 12.7345 12.8432C12.2012 13.0932 11.4731 13.2205 10.5712 13.2205H5.85867V6.13882H10.5712C11.4722 6.13882 12.2012 6.26518 12.7345 6.51513C13.2632 6.76324 13.6766 7.07222 13.962 7.431C14.2501 7.7944 14.4441 8.17717 14.5383 8.56916C14.6407 8.99527 14.6929 9.37619 14.6929 9.70085C14.6929 10.0246 14.6407 10.4055 14.5383 10.8316ZM14.2145 24.8316C13.9309 25.1895 13.5202 25.4893 12.9961 25.7235C12.461 25.9624 11.7292 26.0823 10.8228 26.0823H5.85867V18.6188H10.8648C11.7036 18.6188 12.3887 18.7563 12.9019 19.0265C13.4269 19.3051 13.8477 19.6389 14.1523 20.0199C14.4559 20.3989 14.6645 20.8057 14.7715 21.2253C14.8868 21.6782 14.9453 22.0702 14.9453 22.393C14.9453 22.7758 14.8923 23.201 14.7898 23.6584C14.6947 24.0753 14.5017 24.4701 14.2145 24.8316Z" fill="#FF4B00"/>
<path fill-rule="evenodd" clip-rule="evenodd" d="M84.727 12.7281V10.6529H90.3661V31.4901H84.727V29.4149C84.1736 30.2754 83.1528 31.0234 81.9234 31.4901C81.0828 31.8093 80.147 31.9993 79.193 31.9993C78.0085 31.9993 76.888 31.8277 75.848 31.4901C75.5232 31.385 75.2049 31.2632 74.8967 31.1267C73.6033 30.5484 72.4755 29.7423 71.5461 28.7305C70.6223 27.7252 69.8932 26.5483 69.3801 25.2331C68.867 23.9197 68.6072 22.5196 68.6072 21.0715C68.6072 19.6235 68.867 18.2234 69.3801 16.9091C69.8932 15.5947 70.6223 14.4178 71.5461 13.4116C72.4755 12.4007 73.6033 11.5946 74.8967 11.0163C75.2049 10.8789 75.5232 10.758 75.848 10.6529C76.888 10.3153 78.0085 10.1438 79.193 10.1438C80.147 10.1438 81.0828 10.3329 81.9234 10.6529C83.1528 11.1196 84.1736 11.8676 84.727 12.7281ZM83.2634 25.1307C83.7217 24.6179 84.0839 24.0036 84.3391 23.3063C84.598 22.6054 84.727 21.8527 84.727 21.0715C84.727 20.2903 84.598 19.5377 84.3391 18.8358C84.0839 18.1385 83.7217 17.5252 83.2634 17.0124C82.8061 16.5014 82.2472 16.0863 81.5987 15.7792C80.9575 15.4739 80.234 15.3199 79.4455 15.3199C78.6579 15.3199 77.9408 15.4739 77.3151 15.7783C76.6794 16.0845 76.126 16.5005 75.6687 17.0124C75.2122 17.5233 74.8583 18.1348 74.6159 18.8284C74.3707 19.5303 74.2463 20.2848 74.2463 21.0715C74.2463 21.8583 74.3707 22.6127 74.6159 23.3146C74.8583 24.0082 75.2122 24.6188 75.6687 25.1307C76.126 25.6426 76.6794 26.0585 77.3151 26.3648C77.9408 26.6682 78.6579 26.8232 79.4455 26.8232C80.234 26.8232 80.9575 26.6682 81.5987 26.3638C82.2472 26.0558 82.8061 25.6417 83.2634 25.1307Z" fill="#FF4B00"/>
<path fill-rule="evenodd" clip-rule="evenodd" d="M50.5701 31.4904H44.9319V0.72155H50.5701V12.7284C51.1235 11.867 52.1452 11.1199 53.3736 10.6523C54.2142 10.3331 55.1509 10.1431 56.1049 10.1431C57.2886 10.1431 58.4091 10.3156 59.4491 10.6523C59.7747 10.7574 60.0921 10.8791 60.4013 11.0166C61.6938 11.594 62.8216 12.4001 63.7509 13.4119C64.6757 14.4172 65.4047 15.595 65.9169 16.9093C66.431 18.2227 66.6908 19.6237 66.6908 21.0709C66.6908 22.5199 66.431 23.9199 65.9169 25.2343C65.4047 26.5486 64.6757 27.7255 63.7509 28.7308C62.8216 29.7417 61.6938 30.5478 60.4013 31.1261C60.0921 31.2644 59.7747 31.3844 59.4491 31.4904C58.4091 31.828 57.2886 31.9995 56.1049 31.9995C55.1509 31.9995 54.2142 31.8095 53.3736 31.4904C52.1452 31.0228 51.1235 30.2757 50.5701 29.4152V31.4904ZM52.0345 17.0126C51.5762 17.5254 51.2131 18.1388 50.9579 18.8361C50.699 19.537 50.5701 20.2906 50.5701 21.0709C50.5701 21.853 50.699 22.6047 50.9579 23.3066C51.2131 24.0039 51.5762 24.6181 52.0345 25.13C52.4919 25.641 53.0498 26.0561 53.6993 26.3641C54.3396 26.6685 55.064 26.8225 55.8525 26.8225C56.64 26.8225 57.3563 26.6685 57.9828 26.365C58.6176 26.0588 59.1719 25.6429 59.6293 25.13C60.0857 24.6191 60.4397 24.0085 60.6812 23.314C60.9263 22.613 61.0517 21.8585 61.0517 21.0709C61.0517 20.2851 60.9263 19.5306 60.6812 18.8287C60.4397 18.1351 60.0857 17.5236 59.6293 17.0126C59.1719 16.5007 58.6176 16.0848 57.9828 15.7786C57.3563 15.4742 56.64 15.3202 55.8525 15.3202C55.064 15.3202 54.3396 15.4742 53.6993 15.7795C53.0498 16.0866 52.4919 16.5017 52.0345 17.0126Z" fill="#FF4B00"/>
<path fill-rule="evenodd" clip-rule="evenodd" d="M129.685 12.8607C130.557 13.712 131.21 14.7357 131.737 15.8527C132.702 17.8966 132.643 20.7927 132.261 22.796H118.309C118.374 23.4573 118.471 23.8945 118.602 24.3067C118.775 24.8565 119.043 25.3416 119.401 25.752C119.752 26.1542 120.218 26.4779 120.785 26.7149C121.364 26.9557 122.104 27.0783 122.984 27.0783C124.168 27.0783 125.016 26.8634 125.504 26.4419C125.985 26.0269 126.339 25.5224 126.587 24.9598H132.325L132.3 25.1064C132.148 26.0167 131.821 26.9013 131.327 27.7314C130.833 28.5624 130.172 29.3039 129.368 29.9357C128.568 30.5629 127.625 31.0693 126.566 31.44C125.504 31.8117 124.299 31.9999 122.984 31.9999C121.264 31.9999 119.742 31.714 118.459 31.1495C117.173 30.5823 116.085 29.7955 115.224 28.8068C114.365 27.8236 113.714 26.6458 113.287 25.3084C112.864 23.9895 112.651 22.5645 112.651 21.0712C112.651 19.5466 112.882 18.1032 113.333 16.7815C113.788 15.4487 114.451 14.2764 115.306 13.2951C116.168 12.3063 117.251 11.5251 118.524 10.9727C119.791 10.422 121.249 10.1435 122.858 10.1435C124.181 10.1435 125.445 10.3851 126.611 10.861C127.779 11.3388 128.811 12.0103 129.685 12.8607ZM122.731 14.6841C121.418 14.6841 120.357 15.0457 119.496 15.7872C118.76 16.419 118.357 17.3109 118.268 18.6898H126.942C126.856 17.3745 126.478 16.4956 125.795 15.8287C125.008 15.0586 124.003 14.6841 122.731 14.6841Z" fill="#FF4B00"/>
<path d="M27.4929 0C26.4264 0 25.5016 0.387378 24.7433 1.15199C23.985 1.91752 23.6009 2.86475 23.6009 3.96786C23.6009 5.04329 23.985 5.97669 24.7433 6.74037C25.5016 7.50498 26.4264 7.89328 27.4929 7.89328C28.5878 7.89328 29.5272 7.50498 30.2855 6.74037C31.0438 5.97576 31.428 5.04329 31.428 3.96786C31.428 2.86475 31.0438 1.91844 30.2855 1.15199C29.5272 0.387378 28.5869 0 27.4929 0Z" fill="#FF4B00"/>
</svg>
