<svg width="32" height="32" viewBox="0 0 32 32" fill="none" xmlns="http://www.w3.org/2000/svg">
<path d="M23.6498 12.0043V12.0039C23.65 12.2947 23.5314 12.845 23.4568 13.2513C23.3927 13.5994 23.3049 14.0697 22.745 14.0697C21.5928 14.0697 21.7511 12.5134 20.8139 12.5134C20.4271 12.5134 20.198 12.8205 20.198 13.203C20.198 13.4897 20.3632 13.7573 20.6168 13.9556L21.5489 14.6997C22.3274 15.2693 22.6436 16.0264 22.6436 16.6118C22.6436 17.7134 21.7386 18.5355 20.6472 18.5355H18.3329C17.4598 18.5355 17.0194 18.2544 16.7667 17.5931C16.7003 17.3947 16.3422 16.4232 16.3422 16.0819C16.3422 15.5662 16.6779 15.168 17.1901 15.168C18.1756 15.168 18.6063 16.7235 19.4169 16.7235C19.7354 16.7235 19.972 16.4309 19.972 16.1283C19.972 15.9024 19.8342 15.6587 19.5808 15.4604L18.7704 14.7825C18.0927 14.2369 17.7068 13.6093 17.7068 12.94C17.7068 11.7134 18.62 10.6015 20.0357 10.6015H22.3622C23.1102 10.6015 23.6498 11.3052 23.6498 12.0043ZM15.5771 15.6913C15.5771 16.2237 15.813 16.8312 15.813 17.3768C15.813 17.9721 15.3662 18.5353 14.7084 18.5353C13.8845 18.5353 13.8863 17.7051 13.4327 17.7051C12.9791 17.7051 12.9465 18.6362 11.512 18.6362C10.0775 18.6362 8.49274 17.0194 8.49274 14.837C8.49274 12.6547 9.84931 10.7018 11.9542 10.7018C13.1577 10.7018 13.5963 11.4798 14.0107 11.4798C14.5503 11.4798 14.5574 10.5 15.5325 10.5C16.1435 10.5 16.625 11.0378 16.625 11.675C16.625 12.6911 15.5771 14.2198 15.5771 15.6913ZM13.593 14.6694C13.593 13.8252 12.9476 13.1409 12.1515 13.1409C11.3554 13.1409 10.71 13.8252 10.71 14.6694C10.71 15.5136 11.3554 16.1979 12.1515 16.1979C12.9476 16.1979 13.593 15.5136 13.593 14.6694ZM30.9521 15.6915C30.9521 16.2239 31.1879 16.8314 31.1879 17.377C31.1879 17.9723 30.741 18.5355 30.0835 18.5355C29.2595 18.5355 29.2613 17.7053 28.8076 17.7053C28.354 17.7053 28.3215 18.6364 26.887 18.6364C25.4525 18.6364 23.8677 17.0196 23.8677 14.8372C23.8677 12.6548 25.2245 10.7018 27.3292 10.7018C28.5326 10.7018 28.9712 11.4798 29.3858 11.4798C29.9252 11.4798 29.9324 10.5 30.9074 10.5C31.5183 10.5 32 11.0378 32 11.675C32 12.6911 30.9521 14.2196 30.9521 15.6911V15.6915ZM28.9681 14.6696C28.9681 13.8254 28.3226 13.1411 27.5265 13.1411C26.7304 13.1411 26.085 13.8254 26.085 14.6696C26.085 15.5138 26.7304 16.1981 27.5265 16.1981C28.3226 16.1981 28.9681 15.5138 28.9681 14.6696ZM8.30959 11.6909C8.30959 12.2094 8.00934 13.0014 7.61245 14.6828C7.2156 16.3642 6.98632 17.2695 6.98632 18.1022C6.98632 18.935 7.3519 19.4552 7.3519 20.1806C7.3519 20.9061 6.79438 21.5 6.24747 21.5H5.28905C4.66877 21.5 4.20053 20.7945 4.20053 20.1806C4.20053 19.1199 5.27862 18.8004 5.27862 18.1296C5.27862 17.8485 5.09273 17.6044 4.82338 17.6044C4.31178 17.6044 4.19506 18.3337 3.03865 18.3337C1.59865 18.3336 0 16.8634 0 14.6337C0 12.4039 1.69947 10.702 3.49261 10.702C4.78769 10.702 5.11083 11.48 5.63488 11.48C6.19295 11.48 6.26468 10.5002 7.18668 10.5002C7.75245 10.5002 8.30959 10.9837 8.30959 11.6909ZM5.28046 14.6694C5.28046 13.8252 4.6351 13.1409 3.83899 13.1409C3.04285 13.1409 2.39751 13.8252 2.39751 14.6694C2.39751 15.5136 3.04285 16.1979 3.83899 16.1979C4.6351 16.1979 5.28046 15.5136 5.28046 14.6694Z" fill="#FF84B6"/>
</svg>
